<svg width="565.4517822265625" height="136"><defs id="SvgjsDefs2299"></defs><g id="SvgjsG2300" featurekey="root" fill="#ffffff" transform="matrix(1,0,0,1,0,0)"></g><g id="SvgjsG2301" featurekey="symbol1" fill="#373737" transform="matrix(0.27777316254171935,0,0,0.27777316254171935,9.001535125233582,15.002210368412255)"><g transform="translate(-13.800394,-1.7079576)"><path d="M192,1.7c0,0-27.5,27.8-48.2,48.7c5.2,9.2,10.9,18.8,17,28.5c3.8,6.1,7.1,11.1,10.6,16.4c2-1.3,4-2.8,6.1-4.1 c0.4-0.2,11.4-7.4,16.9-10.9c10.7-6.8,21.1-13.2,31.3-19.3c3.4-2,6.7-3.9,10-5.8c0.7-3,1.4-5.5,2-7.7C218.1,27.9,192,1.7,192,1.7z M136.6,57.7c-10.6,10.8-13,13.1-23.6,23.8c3.5,9.3,6,17,7.9,25.5c1.8,7.9,3,16,4,24.4c12.8-11.3,25.4-21.4,38.3-30.5 c-3.6-5.4-6.9-10.5-10.8-16.7C146.7,75.1,141.5,66.3,136.6,57.7L136.6,57.7z M249.2,59.2c-1.4,0.8-2.7,1.4-4.2,2.2 c-0.2,0.1-0.4,0.3-0.7,0.4c0,0.1,0,0.1-0.1,0.2c0,0-1.7,6.8-2.3,9.5c-7.7,30.8-13.8,64-17.8,97.6c2.7,3.7,7.5,10.1,8.9,12 c0.2,0,0.3,0,0.6,0c22.5-26.1,60.5-70.1,62.2-72.2c0.5-0.6,0.9-1,1.4-1.6C280.9,90.9,265,75,249.2,59.2L249.2,59.2z M232.4,68.6 c-0.6,0.3-1.1,0.6-1.7,0.9c-10.2,6-20.4,12.4-31,19.2c-5.5,3.5-16.5,10.7-16.9,10.9c-2,1.2-3.9,2.6-5.8,3.9 c11,16.2,25.9,36.7,38.6,53.9c4.1-30.5,9.7-60.5,16.7-88.5C232.4,68.9,232.4,68.8,232.4,68.6z M105.2,89.4 c-12.8,13-15.4,15.6-27.9,28.2c2.3,3.2,3.7,7.7,4.6,13.6c0.4,2.4,0.6,4.9,0.8,7.6c0.1,1,0.3,5.1,0.3,5.4c0.5,9.5-0.1,18.6-1.4,29.2 c11.9-12.4,23-23.3,33.9-33.4c-0.9-10.6-2.2-20.9-4.4-30.7C109.6,102.5,107.8,96.3,105.2,89.4L105.2,89.4z M168.7,109.2 c-14.4,10.2-28.4,21.7-42.8,34.9c0.7,11.5,0.9,23.7,0.3,36.7c36.7,0.1,52.8,0.2,86.7,0.3c0.3-3,0.6-6,1-9 C194.7,146.5,180.7,127.1,168.7,109.2L168.7,109.2z M304.3,114.4c-0.3,0.4-0.6,0.6-0.9,1c-1.6,1.9-33.7,39.1-56.7,65.8 c55.6,0.2,125.3,0.4,125.1,0.4C371.5,181.6,340.1,150.2,304.3,114.4z M69.9,125c-30,30.1-55.7,55.9-56.1,55.8 c-0.4-0.2,22.6-0.3,56.8-0.2c2.2-14.6,2.9-24.6,2.3-35.8c0-0.3-0.2-4.3-0.3-5.2c-0.2-2.5-0.4-4.7-0.7-6.8 C71.5,129.2,70.7,126.8,69.9,125z M116.5,152.6c-9,8.6-18.2,17.7-28,27.9c10.2,0,16.3,0.1,27.7,0.1 C116.6,170.9,116.8,161.5,116.5,152.6L116.5,152.6z"></path><path d="M373.8,202.8c0.3,0-77.1,0.3-129.5,0.5c15.3,20.3,25.3,33.8,34.4,46.5c17.5-2.3,35.4-4,53.5-5.4 C348.9,227.6,373.6,202.8,373.8,202.8z M222.6,203.4c0,0.1,0,0.3,0,0.4c0.1-0.1,0.3-0.3,0.3-0.4 C222.8,203.4,222.7,203.4,222.6,203.4z M212.5,203.4c-29.8,0.1-49.8,0.2-86.2,0.3c-0.2,2.7-0.3,5.1-0.5,7.9 c-1.2,13.7-2.5,25.3-5.5,48.7c-1.5,11.9-1.9,15.9-2.6,22.5c16.8-4.5,33.1-8.7,48.8-12.4c1.8-2.2,3.7-4.6,5.5-6.8 c19.2-23,34.4-40.9,39.4-46.9C211.9,212.2,212.1,207.8,212.5,203.4z M15.7,203.6c0.2-0.1,10.8,10.4,24.2,23.8 c5-5.4,9.6-10.5,15-16.3c1.8-1.9,5.2-5.5,6.8-7.2C37,203.9,15.4,203.8,15.7,203.6z M116.3,203.7c-15.2,0-24,0.1-36.9,0.1 c-0.6,3.2-1,6-1.7,9.6c-0.6,3.3-0.9,4.7-1.2,6.6c-2.2,11.8-3.4,19.9-4.2,28c-0.4,3.8-0.6,7.3-0.8,10.9 c12.2,12.2,18.4,18.6,28.4,28.7c2.5-0.7,5-1.4,7.5-2.1c0.7-6.9,1.3-12.5,3.1-26.6c2.9-23.3,4.3-34.8,5.5-48.3 C116.1,208.3,116.2,206.1,116.3,203.7L116.3,203.7z M233.8,206c-1.9,2.2-9.3,10.8-9.3,10.8c-0.8,0.9-2.4,2.8-3.2,3.8 c-0.9,13-1.4,25.9-1.5,38.7c16-3,31.8-5.7,47.6-7.9C252.9,231.7,236.5,209.5,233.8,206z M67.8,212.1c-1.3,1.4-4,4.3-5.5,5.8 c-5.6,5.9-10.2,11.1-15.2,16.6c5.2,5.2,9.2,9.2,15.1,15.1c0.1-0.8,0.1-1.7,0.2-2.5c0.9-8.4,2.2-16.8,4.4-28.8 C67,216.5,67.2,215,67.8,212.1L67.8,212.1z M210.6,233.4c-8.1,9.6-15,17.7-28.1,33.5c9.2-2,18.3-3.7,27.3-5.5 C209.9,252.1,210.1,242.8,210.6,233.4z M321.2,255.2c-12.1,1.1-24,2.4-35.9,3.9c1.7,2.4,3.5,4.9,5.2,7.2c2.4,3.5,5,7.3,7.9,11.6 C309.5,266.8,310.9,265.5,321.2,255.2z M274,260.5c-18.1,2.5-36,5.4-54.2,8.8c0,2.6-0.1,5.2,0,7.7c0.2,11.9,0.8,23.4,1.7,34.7 c17.3-3.7,34.8-6.9,52.6-9.3c8.4-8.4,8.7-8.7,17.3-17.3c-3.4-5-6.2-9.1-8.9-13C280.4,269.3,276.6,264.2,274,260.5L274,260.5z M209.8,271.4c-12.4,2.4-24.8,5-37.6,8c-11.9,14.5-23.9,29.4-36,45c3.7,3.7,4.3,4.3,8,8.1c21.8-7.3,44.3-13.5,67.4-18.7 c-0.9-11.9-1.6-24-1.8-36.6C209.7,275.3,209.8,273.3,209.8,271.4L209.8,271.4z M156,283.3c-12.8,3.1-26,6.5-39.5,10.2 c-0.3,2.5-0.9,7.2-1.2,9.8c6,6.1,7.4,7.4,13.7,13.8C138.1,305.6,147.1,294.3,156,283.3z M262,314.4c-13.4,2.1-26.6,4.6-39.7,7.4 c0.9,9.9,2.1,19.5,3.6,28.8C239.3,337.1,245.6,330.8,262,314.4L262,314.4z M212.4,323.9c-20.7,4.7-40.9,10.1-60.5,16.4 c19.2,19.3,41.9,42.3,41.9,42.3s16.3-16.3,23.2-23.3C215.1,348,213.6,336.1,212.4,323.9z"></path></g></g><g id="SvgjsG2302" featurekey="text1" fill="#373737" transform="matrix(3.1152650689963126,0,0,3.1152650689963126,124.64174770588325,11.582550670018161)"><path d="M5.4 10 q2.92 0 4.49 1.11 t1.57 3.31 q0 1.2 -0.43 2.05 t-1.24 1.38 t-1.97 0.77 t-2.62 0.24 l-1.54 0 l0 5.14 l-1.94 0 l0 -13.66 q0.82 -0.2 1.83 -0.27 t1.85 -0.07 z M5.56 11.7 q-1.24 0 -1.9 0.06 l0 5.44 l1.46 0 q1 0 1.8 -0.13 t1.35 -0.44 t0.85 -0.85 t0.3 -1.38 q0 -0.8 -0.31 -1.32 t-0.84 -0.83 t-1.23 -0.43 t-1.48 -0.12 z M15.620000000000001 24 l-1.86 0 l0 -10.4 l1.86 0 l0 10.4 z M14.68 11.72 q-0.5 0 -0.85 -0.33 t-0.35 -0.89 t0.35 -0.89 t0.85 -0.33 t0.85 0.33 t0.35 0.89 t-0.35 0.89 t-0.85 0.33 z M18.24 18.82 q0 -1.38 0.4 -2.41 t1.06 -1.71 t1.52 -1.02 t1.76 -0.34 q2.1 0 3.22 1.31 t1.12 3.99 l0 0.31 t-0.02 0.35 l-7.12 0 q0.12 1.62 0.94 2.46 t2.56 0.84 q0.98 0 1.65 -0.17 t1.01 -0.33 l0.26 1.56 l-0.68 0.52 t-0.66 0.6 q-0.34 0.34 -0.49 0.59 t-0.15 0.49 q0 0.34 0.23 0.46 t0.57 0.12 q0.24 0 0.46 -0.05 t0.36 -0.09 l0.14 1.22 q-0.24 0.12 -0.62 0.17 t-0.7 0.05 q-1.02 0 -1.61 -0.36 t-0.59 -1.16 q0 -0.46 0.33 -0.98 t0.95 -1.04 q-0.16 0.02 -0.33 0.03 t-0.33 0.01 q-1.36 0 -2.35 -0.41 t-1.63 -1.13 t-0.95 -1.71 t-0.31 -2.17 z M25.38 17.8 q0.02 -1.26 -0.63 -2.07 t-1.79 -0.81 q-0.64 0 -1.13 0.25 t-0.83 0.65 t-0.53 0.92 t-0.25 1.06 l5.16 0 z M33.76 18.28 q0.6 0.46 1.27 1.14 t1.32 1.47 t1.23 1.6 t0.98 1.51 l-2.18 0 q-0.42 -0.7 -0.97 -1.43 t-1.15 -1.4 t-1.22 -1.23 t-1.18 -0.94 l0 5 l-1.86 0 l0 -15.2 l1.86 -0.32 l0 9.48 l1.06 -1.06 t1.14 -1.18 t1.06 -1.15 t0.86 -0.97 l2.18 0 q-0.46 0.5 -1 1.1 t-1.12 1.21 t-1.17 1.22 t-1.11 1.15 z M40.44 13.9 q0.64 -0.16 1.7 -0.34 t2.44 -0.18 q1.24 0 2.06 0.35 t1.31 0.98 t0.69 1.51 t0.2 1.94 l0 5.84 l-1.86 0 l0 -5.44 q0 -0.96 -0.13 -1.64 t-0.43 -1.1 t-0.8 -0.61 t-1.24 -0.19 q-0.3 0 -0.62 0.02 t-0.61 0.05 t-0.52 0.07 t-0.33 0.06 l0 8.78 l-1.86 0 l0 -10.1 z M51.339999999999996 18.82 q0 -1.38 0.4 -2.41 t1.06 -1.71 t1.52 -1.02 t1.76 -0.34 q2.1 0 3.22 1.31 t1.12 3.99 l0 0.31 t-0.02 0.35 l-7.12 0 q0.12 1.62 0.94 2.46 t2.56 0.84 q0.98 0 1.65 -0.17 t1.01 -0.33 l0.26 1.56 q-0.34 0.18 -1.19 0.38 t-1.93 0.2 q-1.36 0 -2.35 -0.41 t-1.63 -1.13 t-0.95 -1.71 t-0.31 -2.17 z M58.47999999999999 17.8 q0.02 -1.26 -0.63 -2.07 t-1.79 -0.81 q-0.64 0 -1.13 0.25 t-0.83 0.65 t-0.53 0.92 t-0.25 1.06 l5.16 0 z  M75.41999999999999 14.6 q-0.84 2.68 -1.7 4.96 t-1.72 4.44 l-1.94 0 q-1.06 -3.06 -1.87 -6.46 t-1.51 -7.4 l2.04 0 q0.28 1.56 0.58 3.12 t0.62 3.03 t0.64 2.81 t0.66 2.48 q0.8 -2.1 1.7 -4.61 t1.68 -5.19 l1.68 0 q0.78 2.68 1.7 5.19 t1.72 4.61 q0.32 -1.12 0.64 -2.46 t0.63 -2.81 t0.61 -3.04 t0.58 -3.13 l1.98 0 q-0.72 4 -1.53 7.4 t-1.85 6.46 l-1.94 0 q-0.88 -2.16 -1.72 -4.44 t-1.68 -4.96 z M86.29999999999998 13.9 q0.64 -0.16 1.7 -0.34 t2.44 -0.18 q1.24 0 2.06 0.35 t1.31 0.98 t0.69 1.51 t0.2 1.94 l0 5.84 l-1.86 0 l0 -5.44 q0 -0.96 -0.13 -1.64 t-0.43 -1.1 t-0.8 -0.61 t-1.24 -0.19 q-0.3 0 -0.62 0.02 t-0.61 0.05 t-0.52 0.07 t-0.33 0.06 l0 8.78 l-1.86 0 l0 -10.1 z M97.19999999999999 18.82 q0 -1.38 0.4 -2.41 t1.06 -1.71 t1.52 -1.02 t1.76 -0.34 q2.1 0 3.22 1.31 t1.12 3.99 l0 0.31 t-0.02 0.35 l-7.12 0 q0.12 1.62 0.94 2.46 t2.56 0.84 q0.98 0 1.65 -0.17 t1.01 -0.33 l0.26 1.56 l-0.68 0.52 t-0.66 0.6 q-0.34 0.34 -0.49 0.59 t-0.15 0.49 q0 0.34 0.23 0.46 t0.57 0.12 q0.24 0 0.46 -0.05 t0.36 -0.09 l0.14 1.22 q-0.24 0.12 -0.62 0.17 t-0.7 0.05 q-1.02 0 -1.61 -0.36 t-0.59 -1.16 q0 -0.46 0.33 -0.98 t0.95 -1.04 q-0.16 0.02 -0.33 0.03 t-0.33 0.01 q-1.36 0 -2.35 -0.41 t-1.63 -1.13 t-0.95 -1.71 t-0.31 -2.17 z M104.33999999999999 17.8 q0.02 -1.26 -0.63 -2.07 t-1.79 -0.81 q-0.64 0 -1.13 0.25 t-0.83 0.65 t-0.53 0.92 t-0.25 1.06 l5.16 0 z M110.69999999999999 13.6 l3.94 0 l0 1.56 l-3.94 0 l0 4.8 q0 0.78 0.12 1.29 t0.36 0.8 t0.6 0.41 t0.84 0.12 q0.84 0 1.35 -0.19 t0.71 -0.27 l0.36 1.54 q-0.28 0.14 -0.98 0.35 t-1.6 0.21 q-1.06 0 -1.75 -0.27 t-1.11 -0.81 t-0.59 -1.33 t-0.17 -1.83 l0 -9.28 l1.86 -0.32 l0 3.22 z M120.83999999999999 13.38 q0.24 0 0.55 0.03 t0.61 0.08 t0.55 0.1 t0.37 0.09 l-0.32 1.62 q-0.22 -0.08 -0.73 -0.19 t-1.31 -0.11 q-0.52 0 -1.03 0.11 t-0.67 0.15 l0 8.74 l-1.86 0 l0 -9.96 q0.66 -0.24 1.64 -0.45 t2.2 -0.21 z M131.62 15 q-0.42 0.46 -1.11 1.3 t-1.48 1.86 t-1.58 2.14 t-1.39 2.14 l5.72 0 l0 1.56 l-7.94 0 l0 -1.24 q0.48 -0.88 1.18 -1.94 t1.47 -2.11 t1.5 -1.98 t1.27 -1.57 l-5.14 0 l0 -1.56 l7.5 0 l0 1.4 z M137.66 22.66 q0.66 0 1.17 -0.03 t0.85 -0.11 l0 -3.1 q-0.2 -0.1 -0.65 -0.17 t-1.09 -0.07 q-0.42 0 -0.89 0.06 t-0.86 0.25 t-0.65 0.52 t-0.26 0.87 q0 1 0.64 1.39 t1.74 0.39 z M137.5 13.34 q1.12 0 1.89 0.29 t1.24 0.82 t0.67 1.26 t0.2 1.61 l0 6.5 q-0.24 0.04 -0.67 0.11 t-0.97 0.13 t-1.17 0.11 t-1.25 0.05 q-0.88 0 -1.62 -0.18 t-1.28 -0.57 t-0.84 -1.03 t-0.3 -1.54 q0 -0.86 0.35 -1.48 t0.95 -1 t1.4 -0.56 t1.68 -0.18 q0.28 0 0.58 0.03 t0.57 0.08 t0.47 0.09 t0.28 0.06 l0 -0.52 q0 -0.46 -0.1 -0.91 t-0.36 -0.8 t-0.71 -0.56 t-1.17 -0.21 q-0.92 0 -1.61 0.13 t-1.03 0.27 l-0.22 -1.54 q0.36 -0.16 1.2 -0.31 t1.82 -0.15 z"></path></g></svg>